<svg xmlns="http://www.w3.org/2000/svg" xmlns:xlink="http://www.w3.org/1999/xlink" width="89" height="87" viewBox="0 0 89 87">
  <defs>
    <filter id="Rectangle_3354" x="0" y="0" width="89" height="87" filterUnits="userSpaceOnUse">
      <feOffset dx="5" dy="5" input="SourceAlpha"/>
      <feGaussianBlur stdDeviation="7.5" result="blur"/>
      <feFlood flood-color="#adcfd6" flood-opacity="0.58"/>
      <feComposite operator="in" in2="blur"/>
      <feComposite in="SourceGraphic"/>
    </filter>
  </defs>
  <g id="binary" transform="translate(-936.5 -707.5)">
    <g transform="matrix(1, 0, 0, 1, 936.5, 707.5)" filter="url(#Rectangle_3354)">
      <rect id="Rectangle_3354-2" data-name="Rectangle 3354" width="44" height="42" rx="8" transform="translate(17.5 17.5)" fill="#fff"/>
    </g>
    <g id="binary-2" data-name="binary" transform="translate(964.993 733.477)">
      <path id="Path_69391" data-name="Path 69391" d="M-636.524,1186.5c.26.2.53.4.778.616q3.864,3.4,7.721,6.811a.766.766,0,0,1,.3.9.768.768,0,0,1-.824.476l-1.981,0a.464.464,0,0,0-.073.018v1c-4.094.33-6.954,2.3-8.026,6.3-.97,3.617.324,6.585,3.234,8.908-.077,0-.152.012-.227.012h-6.359a.755.755,0,0,1-.858-.854q0-7.533,0-15.066v-.309c-.094,0-.172-.011-.251-.012-.636,0-1.272,0-1.908,0a.735.735,0,0,1-.727-.475.722.722,0,0,1,.232-.836q4.115-3.634,8.234-7.264a3.1,3.1,0,0,1,.338-.229Z" transform="translate(645.77 -1186.5)" fill="#42bcd2"/>
      <path id="Path_69392" data-name="Path 69392" d="M-511.391,1360.5a6.859,6.859,0,0,1,6.841,6.849,6.86,6.86,0,0,1-6.867,6.848,6.861,6.861,0,0,1-6.829-6.861A6.86,6.86,0,0,1-511.391,1360.5Zm.561,3.825c.187.114.325.182.444.274a.621.621,0,0,0,.877-.033.58.58,0,0,0-.082-.884,3.2,3.2,0,0,0-.914-.489c-.256-.083-.338-.177-.335-.443a.6.6,0,0,0-.773-.633.614.614,0,0,0-.436.7.367.367,0,0,1-.292.432,2.092,2.092,0,0,0-1.4,1.844,1.866,1.866,0,0,0,1.007,1.958,4.728,4.728,0,0,0,.495.265.272.272,0,0,1,.185.3c-.007.823,0,1.647,0,2.47,0,.063-.011.125-.022.232-.189-.06-.361-.1-.521-.169s-.3-.168-.448-.249a.612.612,0,0,0-.833.211.588.588,0,0,0,.191.815,9.366,9.366,0,0,0,1.074.514c.161.068.407.02.5.126s.044.336.066.511a.588.588,0,0,0,.582.522.584.584,0,0,0,.607-.492,1.812,1.812,0,0,0,.018-.414.228.228,0,0,1,.2-.276,2.427,2.427,0,0,0,1.213-.827,2.39,2.39,0,0,0-1.016-3.861,1.259,1.259,0,0,1-.25-.1c-.058-.037-.131-.109-.132-.167C-510.833,1365.781-510.83,1365.089-510.83,1364.328Z" transform="translate(526.564 -1349.154)" fill="#42bcd2"/>
      <path id="Path_69393" data-name="Path 69393" d="M-404.371,1476.93v-2.21a.929.929,0,0,1,.74.768A1.36,1.36,0,0,1-404.371,1476.93Z" transform="translate(420.116 -1455.921)" fill="#42bcd2"/>
      <path id="Path_69394" data-name="Path 69394" d="M-430.186,1421.574v1.5a.59.59,0,0,1-.446-.483A1.008,1.008,0,0,1-430.186,1421.574Z" transform="translate(444.681 -1406.242)" fill="#42bcd2"/>
    </g>
  </g>
</svg>
