<svg xmlns="http://www.w3.org/2000/svg" xmlns:xlink="http://www.w3.org/1999/xlink" width="60" height="61" viewBox="0 0 60 61">
  <defs>
    <linearGradient id="linear-gradient" x1="0.5" x2="0.5" y2="1" gradientUnits="objectBoundingBox">
      <stop offset="0" stop-color="#19b0d8"/>
      <stop offset="1" stop-color="#7bddf6"/>
    </linearGradient>
  </defs>
  <g id="withdrawal" transform="translate(-316 -486)">
    <rect id="Rectangle_152" data-name="Rectangle 152" width="60" height="61" rx="30" transform="translate(316 486)" fill="#e2f9ff"/>
    <path id="withdrawal-2" data-name="withdrawal" d="M411.447-482.045c-.576-.035-1.1-.022-1.617-.106a4.1,4.1,0,0,1-3.391-3.96q-.019-1.685,0-3.371a4.122,4.122,0,0,1,4.044-4.032q10.141-.017,20.282,0a4.064,4.064,0,0,1,4.027,3.858,29.174,29.174,0,0,1-.031,3.994,4.049,4.049,0,0,1-3.784,3.572c-.378.017-.757,0-1.171,0v.371c0,3.18-.04,6.361.013,9.541a4.234,4.234,0,0,1-4.274,4.3c-3.285.005-6.57.011-9.855,0a4.192,4.192,0,0,1-4.2-3.516,4.781,4.781,0,0,1-.043-.8q0-4.756,0-9.513Zm12.84,1.339a3.672,3.672,0,0,0-3.677-3.656,3.685,3.685,0,0,0-3.649,3.661,3.679,3.679,0,0,0,3.668,3.668A3.664,3.664,0,0,0,424.287-480.707Zm-12.86-4.129v-5.932c-.352,0-.686-.023-1.015,0a1.3,1.3,0,0,0-1.224,1.28c-.021,1.122-.019,2.245,0,3.368a1.286,1.286,0,0,0,1.161,1.274C410.7-484.811,411.048-484.836,411.426-484.836Zm18.4.01c.3,0,.581,0,.863,0a1.318,1.318,0,0,0,1.387-1.353c.018-1.075.016-2.151,0-3.227a1.291,1.291,0,0,0-.827-1.257,3.906,3.906,0,0,0-1.424-.111Zm-10.713,11.461c0,.181,0,.361,0,.542a1.292,1.292,0,0,0,1.328,1.31,1.307,1.307,0,0,0,1.409-1.261,11.153,11.153,0,0,0,0-1.169,1.311,1.311,0,0,0-1.4-1.268,1.3,1.3,0,0,0-1.334,1.334C419.105-473.706,419.108-473.535,419.108-473.364Zm2.762-14.682h-.019c0-.181.007-.362,0-.542a1.313,1.313,0,0,0-1.4-1.3,1.288,1.288,0,0,0-1.338,1.327c-.006.38-.012.761.007,1.141a1.272,1.272,0,0,0,1.231,1.226,1.3,1.3,0,0,0,1.461-1.029A7.085,7.085,0,0,0,421.87-488.046Z" transform="translate(-74.637 997.197)" fill="url(#linear-gradient)"/>
  </g>
</svg>
